<svg xmlns="http://www.w3.org/2000/svg" version="1.1" xmlns:xlink="http://www.w3.org/1999/xlink" xmlns:svgjs="http://svgjs.dev/svgjs" width="1440" height="560" preserveAspectRatio="none" viewBox="0 0 1440 560"><g mask="url(&quot;#SvgjsMask1000&quot;)" fill="none"><rect width="1440" height="560" x="0" y="0" fill="#0e2a47"></rect><circle r="5.43" cx="658.4899999999999" cy="233.23000000000002" filter="url(#SvgjsFilter1001)" fill="rgba(51, 121, 194, 0.58)"></circle><circle r="5.4" cx="205.33" cy="236.07" filter="url(#SvgjsFilter1001)" fill="rgba(51, 121, 194, 0.58)"></circle><circle r="5.745" cx="321.115" cy="10.285" filter="url(#SvgjsFilter1001)" fill="rgba(51, 121, 194, 0.58)"></circle><circle r="9.03" cx="871.81" cy="551.42" filter="url(#SvgjsFilter1001)" fill="rgba(51, 121, 194, 0.58)"></circle><circle r="7.025" cx="1056.2150000000001" cy="75.465" filter="url(#SvgjsFilter1001)" fill="rgba(51, 121, 194, 0.58)"></circle><circle r="7.89" cx="850.72" cy="41.72" filter="url(#SvgjsFilter1001)" fill="rgba(51, 121, 194, 0.58)"></circle><circle r="8.555" cx="1161.4850000000001" cy="545.645" filter="url(#SvgjsFilter1001)" fill="rgba(51, 121, 194, 0.58)"></circle><circle r="8.515" cx="358.525" cy="105.355" filter="url(#SvgjsFilter1001)" fill="rgba(51, 121, 194, 0.58)"></circle><circle r="4.71" cx="504.4" cy="394.38" filter="url(#SvgjsFilter1001)" fill="rgba(51, 121, 194, 0.58)"></circle><circle r="5" cx="845.49" cy="125.8" filter="url(#SvgjsFilter1001)" fill="rgba(51, 121, 194, 0.58)"></circle><circle r="4.705" cx="786.955" cy="306.585" filter="url(#SvgjsFilter1001)" fill="rgba(51, 121, 194, 0.58)"></circle><circle r="4.675" cx="173.26500000000001" cy="151.425" filter="url(#SvgjsFilter1001)" fill="rgba(51, 121, 194, 0.58)"></circle><circle r="8.635" cx="249.125" cy="399.03499999999997" filter="url(#SvgjsFilter1001)" fill="rgba(51, 121, 194, 0.58)"></circle><circle r="5.795" cx="1239.165" cy="205.015" filter="url(#SvgjsFilter1001)" fill="rgba(51, 121, 194, 0.58)"></circle><circle r="8.945" cx="483.935" cy="359.105" filter="url(#SvgjsFilter1001)" fill="rgba(51, 121, 194, 0.58)"></circle><circle r="6.22" cx="180.27" cy="165.19" filter="url(#SvgjsFilter1001)" fill="rgba(51, 121, 194, 0.58)"></circle><circle r="6.665" cx="80.33500000000001" cy="470.755" filter="url(#SvgjsFilter1001)" fill="rgba(51, 121, 194, 0.58)"></circle><circle r="5.63" cx="468.67" cy="524.98" filter="url(#SvgjsFilter1001)" fill="rgba(51, 121, 194, 0.58)"></circle><circle r="7.42" cx="1037.0800000000002" cy="293.01" filter="url(#SvgjsFilter1001)" fill="rgba(51, 121, 194, 0.58)"></circle><circle r="4.955" cx="1152.155" cy="546.635" filter="url(#SvgjsFilter1001)" fill="rgba(51, 121, 194, 0.58)"></circle><path d="M638.4 365.6L623.1 414.4 606.4 422.7 611.6 406.3C612.7 404.7 611.4 403.1 609.8 402.1 608.3 401.9 606.2 402.8 606.1 404.3L598.5 426.8 582.4 435.4 583.4 417.1 601.2 401.2C601.2 401.2 601.6 400.6 601.6 400.6 602.3 399.5 601.9 397.8 601.1 396.5 599.5 395.5 598.1 395.4 596.5 396.6L583.8 408.2 584.9 389.9 622.2 355.3C622.2 355.3 623.1 355.1 623.1 355.1 623.8 354 623.4 352.3 622.6 351 621.4 349.5 619.1 349.5 618 351.1L585.2 381 585.9 358.7 600.5 345.2C600.5 345.2 600.5 345.2 600.9 344.7 601.5 343.6 601.7 342.2 601 341 599.3 339.9 597.4 339.4 595.8 340.7L586.2 349.8 586.8 333.4C587.3 331.5 585.7 330.4 584.2 330.3 582.3 329.8 580.7 331.1 580.8 333.4L579.6 349.4 571.5 339.6C569.8 338.6 567.9 338.1 566.8 339.7 565.3 340.9 565.1 342.4 566.4 343.9L579.8 358.6 578.6 380.6 548.2 347.5C547.4 346.3 545.1 346.3 543.6 347.6 542.9 348.7 542.4 350.6 543.7 352.2L578.3 389.5 577.2 407.8 565.6 395.1C564.3 393.5 562.6 393.9 561 395.2 559.8 395.9 559.8 398.2 560.5 399.4L576.8 416.7 576.3 435.4 560.7 425.4 555.6 402.4C555.2 400.6 553.6 399.6 551.8 400 550.4 399.8 549 402 549.4 403.7L553.1 420.5 537.5 410.5 526.9 360.5C526.6 358.7 524.9 357.7 523.2 358.1 521.4 358.5 520.4 360.1 520.8 361.9L529.9 405.7 511.6 394 507.3 374.5C506.9 372.8 505.3 371.7 503.6 372.1 501.8 372.5 500.8 374.1 501.1 375.9L503.5 388.8 490 380.2C488.4 379.2 486.7 379.6 485.6 381.2 484.6 382.8 485 384.6 486.6 385.6L500.1 394.2 487.7 396.9C485.9 397.3 484.9 398.9 485.3 400.7S487.3 403.5 489.1 403.1L507.6 399 526.5 411.1 483.2 420.6C481.4 421 480.4 422.6 480.8 424.4 481.2 426.2 482.8 427.2 484.5 426.8L534 415.9 549.7 425.9 532.9 429.6C531.1 430 530.1 431.6 530.5 433.4 530.9 435.2 532.5 436.2 534.3 435.8L557.2 430.8 572.3 440.4 556.5 448.5 533.6 441.5C532.2 441.4 530.1 442.3 530 443.7 529.5 445.7 530.2 446.9 531.8 447.9L548.3 453.1 532.4 461.2 483.7 446C481.7 445.5 480.5 446.3 479.4 447.9 479 449.8 480.2 451.4 481.3 452.1L524.2 465.8 504.1 475.8 485.7 470.1C484.1 469.1 482.5 470.4 481.5 472 481.4 473.4 482.3 475.5 484.2 476L496.2 479.9 482.2 487.6C480.4 488 479.9 489.9 480.8 492.1 481.6 493.3 483.5 493.8 484.8 493L499.3 485.7 495.1 498.2C494.7 500.1 495.9 501.7 497.3 501.9 499 502.9 500.2 502.2 500.9 501.1 501.2 500.5 501.2 500.5 501.6 500L507.3 481.6 527.3 471.6 513.9 514C512.9 515.6 514.2 517.2 515.8 518.2 517.2 518.3 518.4 517.6 519.1 516.5 519.5 516 519.5 516 519.5 516L535.6 467 551.4 458.9 546.2 475.4C545.7 477.3 546.4 478.5 548.1 479.6 549.5 479.7 551.2 479.3 551.9 478.3 552.3 477.7 552.3 477.7 552.6 477.2L559.6 454.3 575.5 446.2 574.7 464 557.5 480.3C555.9 481.6 555.9 483.9 556.7 485.1 558.3 486.1 560.3 486.6 561.3 485L574 473.4 573.8 491.5 535.6 526.3C534.4 527.1 534.4 529.4 535.2 530.6 536.8 531.6 538.8 532.1 540.3 530.9L573.1 500.9 572 523 557.7 535.9C556.1 537.1 556.1 539.4 557.7 540.5 558.5 541.7 560.4 542.2 562 540.9L571.6 531.9 571 548.2C570.9 549.6 572.2 551.2 574.1 551.7 575 551.5 576.2 550.8 576.9 549.7 576.9 549.7 577.3 549.1 577.6 548.6L578.2 532.3 587.2 541.9C588 543.1 590.3 543 591.5 542.3 591.9 541.8 591.9 541.8 591.9 541.8 592.9 540.1 592.5 538.4 591.4 537.7L578.5 523.4 579.2 501 609.6 534.1C611.3 535.2 612.7 535.3 614.3 534.1 614.3 534.1 614.6 533.5 614.6 533.5 615.3 532.4 615.4 531 614.2 529.4L579.9 491.6 580.6 473.8 592.2 486.5C593.8 487.6 595.8 488.1 596.8 486.5 597.4 486.8 597.7 486.3 597.7 486.3 598.4 485.2 598 483.4 597.3 482.2L581 464.9 582 446.6 597.1 456.3 602.2 479.2C602.6 481 604.7 482.4 606.5 482 607.7 481.3 608.8 479.7 608.9 478.2L604.7 461.1 620.3 471.1 631.2 520.6C631.6 522.4 633.2 523.4 635 523 636.8 522.6 637.8 521 637.4 519.2L627.9 475.9 646.7 488 650.8 506.5C651.2 508.3 652.8 509.3 654.6 509S657.4 506.9 657 505.2L654.3 492.8 667.8 501.4C669.4 502.5 671.2 502.1 672.2 500.5 673.2 498.8 672.8 497.1 671.2 496L657.7 487.4 670.5 484.2C671.3 484 672.2 483.8 672.6 483.2 672.9 482.7 673.1 481.3 672.9 480.4 672.5 478.6 670.9 477.6 669.1 478L650.2 482.6 631.3 470.5 675 460.5C675.9 460.3 676.7 460.1 677.1 459.5 677.4 459 677.6 457.6 677.4 456.7 677 454.9 675.4 453.9 673.6 454.3L623.8 465.7 608.1 455.7 625.5 452.3C626.4 452.2 627 451.1 627.4 450.5 627.7 450 628.1 449.5 627.9 448.6 627.5 446.8 625.3 445.4 624.1 446.2L600.6 450.9 585.5 441.2 601.7 432.6 624.2 440.1C625.6 440.3 627.4 439.9 628 438.8 628.4 438.3 628.4 438.3 627.9 437.9 628.9 436.3 628 434.2 626 433.7L609.6 428.5 625.7 419.9 674.7 436C676.1 436.1 677.3 435.4 678 434.3 678.4 433.8 678.4 433.8 678.4 433.8 678.9 431.8 678.5 430 676.5 429.5L633.6 415.8 653.7 405.8 672.1 411.5C674 412 675.3 411.3 676 410.2 676 410.2 676.3 409.7 676.3 409.7 676.8 407.7 675.5 406.1 674.5 405.4L661.6 401.8 676.2 394.4C676.5 393.8 676.9 393.3 677.2 392.8 677.6 392.2 677.7 390.8 677.5 389.9 676.3 388.3 674.6 387.3 673.1 388.6L658.5 396 662.7 383.5C663.2 381.5 661.9 379.9 660.8 379.2 658.9 378.7 657.3 380 656.2 381.6L650.6 400 631.1 410.3 644.4 368C644.9 366 644 363.9 642.6 363.8 640.6 363.3 638.9 363.7 638.4 365.6Z" fill="rgba(51, 121, 194, 0.58)"></path><path d="M967.4 492.9L981.8 441.8 1023.2 418.9 1022.3 466.2 983.9 502.8C983.9 502.8 983.6 503.3 983.6 503.3 982.9 504.4 983.3 506.2 984.1 507.4 985.4 508.9 987.7 508.8 988.7 507.2L1022.2 475.1 1021.9 498 1007.3 512.4C1007.3 512.4 1006.9 512.9 1006.9 512.9 1006.3 514 1006.7 515.8 1007.5 517 1008.8 518.5 1011.1 518.4 1012.1 516.8L1022.3 507.2 1021.9 524.1C1021.7 525.6 1023.6 527.4 1025 527.5 1027 528 1028.3 525.8 1028.4 524.4L1028.9 507.5 1038.4 517.7C1039.7 519.2 1042.1 519.1 1043 517.5 1044.6 516.1 1044.5 513.8 1042.8 512.8L1028.5 498.2 1029.4 475.6 1061.5 509.1C1062.8 510.7 1065.1 510.6 1066.1 508.9 1067.6 507.6 1067.5 505.3 1065.9 504.3L1029.3 465.9 1030.1 418.5 1071.2 443.3 1084.1 495.1C1084.6 496.9 1086.2 497.9 1088 497.4 1089.7 497 1090.7 495.3 1090.3 493.6L1078.9 447.9 1098.6 459.8 1103.4 479.1C1103.9 480.9 1105.5 481.8 1107.3 481.4 1109 481 1110 479.3 1109.6 477.6L1106.3 464.4 1121.7 473.6C1123 475.2 1125.1 474.2 1126.1 472.5 1127.1 470.9 1126.6 469.1 1125 468.1L1110.7 459.6 1123.9 456.3C1125.6 455.9 1126.6 454.2 1126.2 452.4S1124.1 449.7 1122.4 450.1L1103 455 1083.3 443.1 1129 431.7C1130.7 431.3 1131.7 429.6 1131.3 427.9 1130.8 426.1 1129.2 425.1 1127.4 425.6L1075.6 438.5 1035 414.1 1076.4 391.2 1126.1 405.4C1128.1 405.8 1129.6 404.5 1130.6 402.8 1131.1 400.9 1129.8 399.3 1128.1 398.3L1083.5 385.7 1103.5 374.6 1123.2 380.4C1125.2 380.9 1126.7 379.6 1127.7 377.9 1128.1 375.9 1126.8 374.4 1125.7 373.8L1112.2 370.1 1126.9 361.8C1128.1 361 1129.5 358.8 1128.2 357.3 1126.8 355.8 1125.2 354.8 1123.7 356.1L1108.9 364.4 1112.6 350.9C1113 348.9 1111.7 347.4 1110.6 346.7 1109.2 346.6 1107.4 347.1 1106.8 348.2 1106.8 348.2 1106.4 348.7 1106.4 348.7L1100.6 368.3 1080.5 379.4 1093.2 334.8C1093.6 332.8 1092.3 331.2 1091.2 330.6 1089.8 330.5 1088 330.9 1087.3 332 1087.3 332 1087 332.6 1087 332.6L1072.7 383.7 1031.3 406.6 1032.1 359.3 1070.6 322.7C1072.1 321.3 1072 319 1070.3 318 1069 316.5 1066.7 316.6 1065.7 318.3L1032.2 350.4 1032.6 327.5 1047.2 313.1C1048.7 311.8 1048.6 309.5 1047 308.5 1045.7 306.9 1043.4 307 1042.4 308.7L1032.2 318.2 1032.6 301.3C1032.7 299.9 1030.9 298 1029.4 297.9 1028 297.8 1026.8 298.6 1026.1 299.7 1025.8 300.2 1025.5 300.8 1025.7 301.7L1025.2 318.6 1015.7 308.3C1014.4 306.8 1012.1 306.9 1011.1 308.6 1011.1 308.6 1010.8 309.1 1010.8 309.1 1010.1 310.2 1010.5 312 1011.3 313.2L1025.7 327.8 1025.3 350.7 993.2 317.2C991.9 315.7 989.6 315.8 988.6 317.4 988.6 317.4 988.2 318 988.2 318 987.6 319.1 988 320.8 988.8 322L1025.4 360.5 1024.6 407.8 984 383.4 971.1 331.6C970.7 329.8 969 328.8 967.3 329.3 965.5 329.7 964.5 331.3 965 333.1L975.8 378.4 956 366.6 951.2 347.2C950.8 345.5 949.1 344.5 947.4 344.9S944.6 347 945.1 348.8L948.4 361.9 934.1 353.4C932.5 352.4 930.7 352.8 929.7 354.5 928.7 356.1 929.2 357.9 930.8 358.9L945.1 367.4 931.9 370.7C931 370.9 930.1 371.1 929.5 372.2S929 374.2 929.3 375.1C929.7 376.9 931.3 377.8 933.1 377.4L952.4 372.6 972.2 384.5 926.5 395.8C925.6 396.1 924.7 396.3 924.1 397.4 923.7 397.9 923.6 399.3 923.8 400.2 924.3 402 925.9 403 927.7 402.5L979.5 389.6 1020.1 414 978.7 436.9 927.6 422.6C926.1 422.5 924.4 422.9 923.7 424 923.7 424 923.4 424.6 923.4 424.6 922.9 426.6 924.3 428.1 925.4 428.8L970 441.4 949.9 452.5 930.3 446.7C928.9 446.5 927.1 447 926.4 448.1 926.4 448.1 926.1 448.6 926.1 448.6 925.7 450.6 927 452.1 928.1 452.8L941.6 456.4 926.9 464.8C926.5 465.3 925.6 465.5 925.3 466.1 924.7 467.2 924.5 468.6 925.3 469.8 926.6 471.4 928.3 472.3 929.8 471L944.5 462.7 940.9 476.2C940.5 478.2 941.8 479.7 942.9 480.4 944.8 480.8 946.4 479.5 947 478.4L952.9 458.8 973 447.7 960.3 492.3C959.9 494.3 961.2 495.9 962.3 496.5 964.9 495.9 967 494.9 967.4 492.9Z" fill="rgba(51, 121, 194, 0.58)"></path><path d="M1291.7 193.1L1278.3 229 1265.4 234.5 1270 222.4C1270.8 221.3 1269.9 220 1268.7 219.2 1267.7 219 1266.1 219.6 1265.9 220.7L1259.3 237.2 1246.9 243.1 1248.4 229.4 1262.4 218.2C1262.4 218.2 1262.7 217.8 1262.7 217.8 1263.2 217 1263 215.7 1262.5 214.7 1261.3 213.9 1260.3 213.7 1259.1 214.6L1249 222.8 1250.6 209.1 1280 184.7C1280 184.7 1280.6 184.6 1280.6 184.6 1281.2 183.8 1281 182.5 1280.5 181.5 1279.6 180.3 1277.9 180.2 1277 181.4L1251.2 202.5 1252.6 185.7 1264.1 176.3C1264.1 176.3 1264.1 176.3 1264.4 175.9 1265 175.1 1265.2 174 1264.7 173.1 1263.5 172.2 1262 171.8 1260.8 172.7L1253.3 179.1 1254.4 166.9C1254.8 165.4 1253.6 164.6 1252.6 164.4 1251.1 164 1249.9 164.8 1249.8 166.6L1248.3 178.5 1242.6 170.8C1241.5 170 1240 169.6 1239.2 170.7 1237.9 171.6 1237.8 172.7 1238.6 173.9L1248.1 185.4 1246.3 201.9 1224.9 175.8C1224.4 174.9 1222.6 174.8 1221.4 175.7 1220.8 176.5 1220.4 177.9 1221.3 179.1L1245.7 208.5 1244.1 222.2 1236 212.2C1235.1 210.9 1233.7 211.2 1232.5 212 1231.6 212.5 1231.5 214.3 1232 215.2L1243.5 228.8 1242.3 242.8 1231 234.6 1228.2 217.2C1228 215.9 1226.8 215 1225.5 215.3 1224.4 215.1 1223.3 216.6 1223.5 218L1225.6 230.7 1214.3 222.6 1208.4 184.7C1208.2 183.3 1207 182.5 1205.7 182.7 1204.4 182.9 1203.5 184.1 1203.7 185.5L1208.8 218.7 1195.6 209.1 1193.2 194.4C1192.9 193.1 1191.8 192.2 1190.4 192.4 1189.1 192.7 1188.3 193.8 1188.5 195.2L1189.7 204.9 1180 197.9C1178.8 197.1 1177.5 197.3 1176.6 198.5 1175.8 199.6 1176 201 1177.2 201.8L1186.9 208.8 1177.5 210.4C1176.2 210.6 1175.4 211.8 1175.6 213.1S1177 215.3 1178.3 215.1L1192.4 212.8 1206 222.6 1173.2 227.9C1171.9 228.1 1171 229.3 1171.2 230.7 1171.4 232 1172.6 232.8 1174 232.6L1211.5 226.5 1222.8 234.6 1210 236.7C1208.7 236.9 1207.9 238.1 1208.1 239.4 1208.3 240.8 1209.5 241.6 1210.8 241.4L1228.2 238.5 1239.1 246.4 1227 251.8 1210.1 245.6C1209.1 245.5 1207.4 246.1 1207.3 247.1 1206.8 248.6 1207.3 249.5 1208.5 250.4L1220.6 254.9 1208.4 260.3 1172.5 247C1171.1 246.5 1170.1 247 1169.3 248.2 1168.8 249.6 1169.7 250.9 1170.5 251.4L1202 263.5 1186.6 270.1 1173.1 265.1C1171.9 264.2 1170.7 265.1 1169.8 266.3 1169.7 267.4 1170.3 269 1171.7 269.4L1180.5 272.8 1169.7 278C1168.3 278.2 1167.9 279.7 1168.5 281.3 1169 282.3 1170.5 282.7 1171.4 282.2L1182.6 277.3 1179 286.5C1178.5 287.9 1179.4 289.2 1180.5 289.3 1181.6 290.2 1182.6 289.7 1183.2 288.9 1183.4 288.5 1183.4 288.5 1183.7 288.1L1188.7 274.6 1204.1 267.9 1192.4 299.1C1191.5 300.2 1192.4 301.5 1193.6 302.3 1194.7 302.5 1195.6 302 1196.2 301.2 1196.5 300.8 1196.5 300.8 1196.5 300.8L1210.5 264.8 1222.7 259.4 1218.1 271.5C1217.7 272.9 1218.2 273.9 1219.4 274.7 1220.4 274.9 1221.8 274.7 1222.3 273.9 1222.6 273.5 1222.6 273.5 1222.9 273.1L1229.1 256.3 1241.2 250.9 1240 264.1 1226.4 275.6C1225.2 276.5 1225.1 278.3 1225.6 279.2 1226.8 280 1228.2 280.5 1229 279.3L1239.1 271.2 1238.2 284.7 1208.1 309.2C1207.2 309.7 1207.1 311.5 1207.6 312.4 1208.8 313.2 1210.2 313.7 1211.5 312.8L1237.3 291.7 1235.5 308.2 1224.2 317.3C1223 318.1 1223 319.9 1224.1 320.7 1224.6 321.7 1226.1 322.1 1227.3 321.2L1234.9 314.8 1233.8 327.1C1233.6 328.1 1234.5 329.3 1235.9 329.8 1236.6 329.7 1237.5 329.2 1238.1 328.4 1238.1 328.4 1238.4 328 1238.7 327.6L1239.8 315.4 1246.2 323C1246.7 323.9 1248.4 324 1249.3 323.5 1249.6 323.1 1249.6 323.1 1249.6 323.1 1250.5 321.9 1250.2 320.6 1249.5 320L1240.4 308.8 1241.8 292 1263.2 318.1C1264.4 318.9 1265.5 319.1 1266.7 318.2 1266.7 318.2 1267 317.8 1267 317.8 1267.5 317.1 1267.7 316 1266.8 314.8L1242.7 285 1244 271.7 1252.1 281.7C1253.3 282.6 1254.8 283 1255.6 281.9 1256 282.1 1256.3 281.8 1256.3 281.8 1256.8 281 1256.6 279.6 1256.1 278.7L1244.6 265.1 1246.2 251.4 1257.1 259.3 1259.9 276.7C1260.1 278 1261.7 279.2 1263 278.9 1264 278.4 1264.8 277.3 1265 276.2L1262.5 263.2 1273.8 271.3 1280 308.8C1280.2 310.2 1281.3 311 1282.7 310.8 1284 310.6 1284.9 309.4 1284.6 308.1L1279.3 275.2 1292.9 285.1 1295.2 299.1C1295.4 300.5 1296.6 301.3 1297.9 301.1S1300.1 299.7 1299.9 298.4L1298.4 289 1308.1 296C1309.3 296.8 1310.6 296.6 1311.5 295.4 1312.3 294.3 1312.1 292.9 1310.9 292.1L1301.2 285.1 1310.8 283.2C1311.5 283.1 1312.2 282.9 1312.5 282.6 1312.7 282.2 1312.9 281.1 1312.8 280.4 1312.6 279.1 1311.4 278.3 1310.1 278.5L1295.7 281.2 1282.1 271.4 1315.2 265.6C1315.9 265.5 1316.5 265.4 1316.8 265 1317.1 264.6 1317.3 263.5 1317.2 262.9 1316.9 261.5 1315.8 260.7 1314.4 260.9L1276.6 267.4 1265.3 259.3 1278.4 257.5C1279.1 257.4 1279.7 256.6 1280 256.2 1280.2 255.8 1280.5 255.4 1280.4 254.8 1280.2 253.4 1278.6 252.3 1277.7 252.8L1259.9 255.4 1249 247.5 1261.4 241.7 1278 248.3C1279 248.5 1280.4 248.2 1280.9 247.5 1281.2 247.1 1281.2 247.1 1280.8 246.8 1281.7 245.6 1281.1 244 1279.6 243.6L1267.5 239 1280 233.2 1316 247.2C1317 247.4 1318 246.9 1318.5 246.1 1318.8 245.7 1318.8 245.7 1318.8 245.7 1319.3 244.3 1319.1 243 1317.6 242.5L1286.1 230.5 1301.5 223.8 1315 228.8C1316.5 229.3 1317.4 228.8 1318 228 1318 228 1318.3 227.6 1318.3 227.6 1318.7 226.2 1317.8 224.9 1317.1 224.4L1307.6 221.1 1318.8 216.2C1319.1 215.8 1319.4 215.4 1319.6 215 1319.9 214.6 1320.1 213.6 1320 212.9 1319.1 211.7 1317.9 210.8 1316.7 211.7L1305.5 216.6 1309.1 207.4C1309.6 206 1308.7 204.8 1307.9 204.2 1306.5 203.7 1305.2 204.6 1304.4 205.8L1299.4 219.3 1284.3 226.3 1296.1 195.1C1296.6 193.7 1296 192 1294.9 191.9 1293.4 191.4 1292.1 191.6 1291.7 193.1Z" fill="rgba(51, 121, 194, 0.58)"></path><path d="M1349.4 401.1L1367.8 436.3 1364.8 446.8 1340.9 452.3 1333.1 444.2 1334.9 404.4C1334.8 403.9 1334.8 403.9 1334.7 403.5 1334.4 402.5 1333.8 401.7 1332.3 401.6 1330.8 401.9 1330 402.6 1329.9 404.1L1328.5 438.9 1316.7 426.3 1317.2 410.9C1317.2 410.9 1317.1 410.5 1317.1 410.5 1316.8 409.5 1316.2 408.7 1314.6 408.5 1313.6 408.3 1312.4 409.5 1312.3 411.1L1311.6 421.1 1303.1 411.7C1302.4 410.9 1300.9 410.7 1299.6 411.5S1298.7 414.2 1299.5 415.5L1307.9 424.4 1298 424.2C1296.5 424 1295.3 425.3 1295.2 426.8 1295.4 427.7 1296.2 429 1297.7 429.2L1313.1 429.6 1324.9 442.6 1290.1 441.2C1288.6 441.1 1287.4 442.3 1287.2 443.4 1287.5 444.8 1288.3 446.1 1289.8 446.2L1329.5 447.5 1337.3 456 1330.2 478.8 1319 481.4 1285.2 460.6C1284 459.9 1282.6 460.2 1281.9 461.3S1281.5 463.9 1282.7 464.6L1312.4 482.9 1295.1 486.9 1282.5 478.9C1281.3 478.2 1279.9 478.5 1278.7 479.8S1278.3 482.3 1279.5 483.1L1288.6 488.4 1275.9 491.3C1274.5 491.6 1273.9 493.2 1274.2 494.6 1274.6 496 1275.7 496.7 1277.1 496.4L1289.8 493.5 1284.3 502.1C1283.2 503.4 1283.5 504.8 1285.1 505.4 1286.2 506.1 1287.6 505.8 1288.4 504.7L1296.3 492 1313.6 488.1 1294.7 517.5C1294 518.6 1294.5 520.5 1295.6 521.2S1298.2 521.6 1298.9 520.5L1320.2 486.6 1331.4 484 1347.8 501.9 1344.3 512.5 1309.1 530.9C1307.9 531.7 1307.7 533.2 1308 534.6 1308.8 535.9 1310.3 536.1 1311.7 535.8L1342.4 519.4 1337.3 535.8 1323.7 542.9C1322.4 543.7 1322.3 545.2 1322.6 546.6 1323.3 547.4 1324.9 548 1326.2 547.2L1335 542.7 1331.4 554.9C1331.1 555.9 1331.9 557.2 1333.1 558 1334.6 558.1 1335.9 557.3 1336.1 556.3L1339.7 544.1 1344.8 553.3C1345.5 554.1 1347.1 554.8 1347.9 554.1 1349.3 553.7 1349.6 552.7 1349.3 551.3 1349.3 551.3 1349.2 550.8 1349.2 550.8L1342.1 537.2 1347.2 520.8 1363.6 551.5C1364.4 552.8 1365.5 553.5 1366.8 552.7 1368.1 551.9 1368.4 550.9 1368.1 549.9 1368 549.5 1368 549.5 1368 549.5L1349.1 513.9 1352.6 503.3 1376.4 497.8 1383.7 506 1382.5 546.2C1382.3 547.2 1383.5 548.4 1384.6 548.6 1386.1 548.8 1387.3 547.5 1387.4 546L1388.8 511.2 1400.6 523.8 1400.2 539.2C1400 540.7 1400.8 542 1402.2 541.7 1403.7 541.8 1404.9 540.5 1405.2 539.5L1405.2 529.1 1413.8 538.5C1414.9 539.2 1416.5 539.4 1417.7 538.6 1418.1 538 1418.4 537 1418.1 536 1418 535.6 1418 535.6 1417.5 535.2L1408.9 525.8 1419.3 525.9C1420.8 526.1 1421.5 524.9 1421.8 523.9 1421.7 523.4 1421.7 523.4 1421.6 523 1421.3 522 1420.7 521.2 1419.6 520.9L1404.3 520.5 1392.5 507.9 1427.3 509.3C1428.7 509 1430 508.2 1429.7 506.8 1430 506.2 1430 506.2 1429.9 505.8 1429.7 504.8 1428.6 504.1 1427.5 503.9L1387.4 502.7 1380.1 494.5 1387.1 471.3 1397.8 468.8 1431.8 490.1C1432.9 490.8 1434.8 490.4 1435.5 489.2S1435.8 486.2 1434.7 485.5L1404.9 467.2 1421.7 463.3 1434.8 471.2C1436 471.9 1437.4 471.6 1438.1 470.4 1438.8 469.3 1438.5 467.9 1437.4 467.1L1428.7 461.7 1441.4 458.8C1442.3 458.6 1443.5 457.4 1443.2 456 1442.8 454.6 1441.1 453.5 1440.2 453.7L1427.6 456.6 1433 448C1433.3 447.4 1433.7 446.8 1433.6 446.3 1433.4 445.4 1432.8 445 1432.2 444.7 1431.1 444 1429.7 444.3 1428.9 445.4L1420.5 458.2 1403.7 462 1422.6 432.6C1422.9 432 1422.8 431.6 1422.6 430.6 1422.5 430.2 1422.4 429.7 1421.8 429.3 1420.7 428.6 1418.8 429 1418.1 430.2L1396.7 463.6 1385.9 466.1 1369.6 448.7 1372.5 437.7 1408.2 419.2C1409 418.5 1409.7 417.3 1409.5 416.4 1409.4 415.9 1409.4 415.9 1408.9 416 1408.6 414.6 1407 414 1405.7 414.8L1375 431.2 1380 414.3 1393.6 407.2C1394.4 406.5 1394.7 405.5 1394.5 404.6 1394.5 404.6 1394.4 404.1 1394.4 404.1 1394.1 402.7 1392.4 402.1 1391.1 402.9L1382 407.9 1385.6 395.8C1385.9 395.2 1385.8 394.7 1385.7 394.3 1385.5 393.3 1384.8 392.5 1384.4 392.6 1382.7 392 1381.5 392.8 1380.7 393.9L1377.1 406.1 1372.6 397.3C1371.8 396 1370.2 395.3 1368.9 396.1 1368.1 396.8 1367.5 398.4 1368.2 399.3L1375.2 412.9 1370.1 429.3 1353.7 398.6C1352.9 397.3 1351.4 397.2 1350 397.5 1349.2 398.2 1348.6 399.8 1349.4 401.1ZM1344.9 456.8L1363.1 452.6 1365.9 452 1367.9 454 1380.3 467.4 1382.3 469.9 1381.5 472.5 1376.1 490 1375.2 492.7 1372.4 493.3 1354.2 497.5 1351.4 498.1 1349.4 496.1 1337 482.7 1335.1 480.7 1335.8 477.6 1341.2 460.1 1342.1 457.4 1344.9 456.8Z" fill="rgba(51, 121, 194, 0.58)"></path><path d="M161.1 404.8L146.1 433 134.9 436.2 140 426.7C140.8 425.8 140.2 424.7 139.3 423.8 138.5 423.6 137.1 423.9 136.8 424.8L129.6 437.7 118.7 441.2 121.4 430.1 134.2 422.3C134.2 422.3 134.5 422 134.5 422 135 421.4 135 420.3 134.7 419.5 133.8 418.6 132.9 418.4 131.8 419L122.7 424.7 125.4 413.5 152.3 396.5C152.3 396.5 152.9 396.5 152.9 396.5 153.4 395.9 153.4 394.8 153.1 394 152.5 392.9 151.1 392.6 150.2 393.5L126.7 408.1 129.6 394.4 140.2 387.9C140.2 387.9 140.2 387.9 140.4 387.6 141 387 141.2 386.1 140.9 385.3 140.1 384.5 138.9 384 137.8 384.6L130.9 389 133.1 379C133.6 377.9 132.7 377.1 131.9 376.8 130.7 376.3 129.6 376.9 129.4 378.3L126.9 388 123 381.1C122.1 380.2 120.9 379.7 120.1 380.6 119 381.2 118.8 382 119.4 383.2L125.9 393.7 122.7 407.1 107.8 383.2C107.4 382.4 106 382.2 104.9 382.8 104.4 383.4 103.8 384.5 104.4 385.6L121.4 412.5 118.7 423.6 113 414.5C112.4 413.4 111.3 413.4 110.1 414 109.3 414.3 109.1 415.7 109.4 416.6L117.4 429.1 115 440.5 106.5 432.5 106 417.8C106 416.7 105.1 415.9 104 415.9 103.1 415.7 102 416.8 102.1 418L102.4 428.7 93.9 420.8 93.2 388.8C93.2 387.7 92.3 386.8 91.2 386.9 90 386.9 89.2 387.8 89.3 388.9L89.9 416.9 79.9 407.6 79.6 395.2C79.5 394 78.6 393.2 77.5 393.3 76.4 393.3 75.6 394.2 75.6 395.3L75.6 403.5 68.3 396.7C67.4 395.8 66.3 395.9 65.5 396.8 64.6 397.6 64.7 398.8 65.5 399.6L72.8 406.4 64.9 406.7C63.8 406.7 63 407.6 63 408.7S63.9 410.7 65 410.6L76.9 410.3 87.1 419.8 59.4 420.7C58.3 420.8 57.5 421.6 57.5 422.8 57.5 423.9 58.4 424.7 59.6 424.7L91.2 423.7 99.7 431.6 88.9 432C87.8 432 87 432.9 87 434 87 435.1 87.9 435.9 89.1 435.9L103.8 435.4 111.9 443.1 101.3 446.3 88 439.3C87.2 439.1 85.8 439.4 85.5 440.3 85 441.4 85.3 442.3 86.2 443.1L95.7 448.2 85 451.3 56.8 436.4C55.7 435.8 54.8 436.1 54 437 53.5 438.2 54.1 439.3 54.7 439.8L79.4 453.2 66 457 55.3 451.4C54.4 450.6 53.3 451.2 52.5 452.1 52.2 452.9 52.6 454.3 53.7 454.9L60.6 458.6 51.1 461.7C50 461.8 49.4 462.9 49.8 464.3 50.1 465.2 51.2 465.7 52.1 465.4L61.9 462.5 57.9 469.7C57.3 470.9 57.9 472 58.8 472.2 59.7 473.1 60.5 472.8 61.1 472.2 61.3 471.9 61.3 471.9 61.6 471.6L67.2 460.9 80.7 457.1 67.6 481.6C66.8 482.5 67.4 483.6 68.2 484.4 69.1 484.7 69.9 484.3 70.5 483.8 70.8 483.5 70.8 483.5 70.8 483.5L86.3 455.2 96.9 452.1 91.9 461.6C91.3 462.7 91.6 463.6 92.5 464.4 93.4 464.6 94.5 464.6 95 464 95.3 463.7 95.3 463.7 95.6 463.4L102.5 450.2 113.2 447 110.7 457.9 98.2 465.9C97.1 466.5 96.9 467.9 97.2 468.8 98 469.6 99.2 470.1 100 469.2L109.2 463.6 107 474.7 79.5 491.7C78.7 492 78.4 493.4 78.7 494.2 79.6 495.1 80.8 495.6 81.9 495L105.5 480.4 102.2 493.8 91.9 500.1C90.8 500.7 90.6 502.1 91.5 502.9 91.8 503.7 92.9 504.3 94 503.7L101 499.2 98.7 509.2C98.5 510 99.1 511.1 100.2 511.7 100.8 511.7 101.6 511.3 102.2 510.8 102.2 510.8 102.5 510.5 102.7 510.2L105 500.2 109.4 507.1C109.7 508 111.2 508.2 112 507.9 112.3 507.6 112.3 507.6 112.3 507.6 113.1 506.7 113.1 505.6 112.5 505.1L106.2 494.8 109.2 481.1 124.1 505C125 505.8 125.8 506.1 126.9 505.5 126.9 505.5 127.2 505.2 127.2 505.2 127.7 504.6 128 503.7 127.4 502.6L110.7 475.4 113.2 464.6 118.8 473.7C119.7 474.6 120.9 475.1 121.7 474.2 122 474.5 122.2 474.2 122.2 474.2 122.8 473.6 122.8 472.5 122.5 471.6L114.4 459.2 117.2 448 125.3 455.7 125.8 470.4C125.8 471.5 127 472.6 128.1 472.6 129 472.3 129.8 471.4 130.1 470.5L129.4 459.5 137.9 467.5 138.9 499.1C138.9 500.3 139.8 501.1 140.9 501 142.1 501 142.9 500.1 142.8 499L142 471.3 152.2 480.9 152.6 492.8C152.6 493.9 153.5 494.7 154.6 494.7S156.5 493.8 156.5 492.6L156.3 484.7 163.6 491.6C164.4 492.4 165.6 492.3 166.4 491.5 167.2 490.6 167.2 489.5 166.3 488.6L159 481.8 167.2 481.3C167.7 481.2 168.3 481.2 168.6 480.9 168.9 480.6 169.1 479.8 169.1 479.2 169.1 478.1 168.2 477.3 167.1 477.3L154.9 478 144.7 468.4 172.7 467.2C173.2 467.2 173.8 467.2 174.1 466.9 174.4 466.6 174.6 465.7 174.6 465.2 174.6 464 173.7 463.2 172.6 463.3L140.6 464.6 132.2 456.6 143.2 456.5C143.8 456.5 144.3 455.9 144.6 455.7 144.9 455.4 145.1 455.1 145.1 454.5 145.1 453.4 143.9 452.3 143.1 452.6L128.1 452.8 119.9 445.1 130.8 441.7 143.8 448.9C144.7 449.1 145.8 449.1 146.3 448.5 146.6 448.2 146.6 448.2 146.3 448 147.1 447.1 146.8 445.7 145.7 445.1L136.2 440.1 147.1 436.6 175.3 452.1C176.2 452.4 177 452.1 177.6 451.5 177.8 451.2 177.8 451.2 177.8 451.2 178.4 450.1 178.3 448.9 177.2 448.4L152.4 435 165.9 431.2 176.5 436.8C177.7 437.3 178.5 437 179.1 436.4 179.1 436.4 179.3 436.2 179.3 436.2 179.9 435 179.3 433.9 178.7 433.3L171.2 429.6 181 426.8C181.3 426.5 181.6 426.2 181.8 425.9 182.1 425.6 182.4 424.7 182.3 424.2 181.7 423.1 180.9 422.2 179.8 422.8L169.9 425.7 174 418.5C174.5 417.3 173.9 416.2 173.3 415.7 172.2 415.2 171 415.8 170.2 416.6L164.6 427.3 151.5 431.4 164.5 406.9C165.1 405.8 164.7 404.4 163.9 404.1 162.7 403.6 161.6 403.6 161.1 404.8Z" fill="rgba(51, 121, 194, 0.58)"></path><path d="M853.3 105.2L840.3 117 837.4 105.5C837.2 104.3 835.7 103.3 833.9 103.3 832.5 104.1 831.5 105.5 831.7 106.7L835.2 121.9 823.1 132.8 816.2 101.9C815.6 100 814.2 99 812.8 99.7 811 99.8 810 101.2 810.6 103.1L818.2 137.1 807.5 147.3 774.8 137.2 771.7 124.6 799.3 99.7C799.5 99.1 799.7 98.6 799.8 98.1 800 97.5 799.8 96.3 799.4 95.6 798.1 94 796.4 94.1 795.3 95.5L770.2 118.2 766.8 102.5 779.3 90.5C779.8 90.7 780 90.2 780.1 89.6 780.5 88.6 780.3 87.3 779.4 86.5 778.5 85.6 776.7 85.6 775.3 86.4L765.2 96.2 760.7 76.6C760.5 75.4 759.1 74.4 757.3 74.4 755.9 75.1 754.9 76.6 755.1 77.8L759.4 96.1 748.1 92.7C746.5 92.2 745 93.4 744.6 94.5 744.2 96.1 744.7 98.1 746.3 98.6L760.8 103 764.1 118.7 734.2 109.5C732.6 109 731.2 109.7 730.7 111.3 730.2 112.9 730.9 114.3 732.5 114.8L765.7 125 769.2 138.4 743.9 161.7 731.5 157.9 723.5 123.2C723.5 121.4 721.5 120.2 720.1 120.9 718.3 121 717.8 122.6 717.9 124.3L725.1 155.9 709.6 151.1 706.2 135.4C706 134.2 704.1 133 702.8 133.2S700.4 135.4 700.4 137.1L703.2 149.1 684.5 143.3C682.9 142.8 681.3 144.1 680.8 145.7 680.5 146.8 681 148.7 682.6 149.2L701.4 155 692.2 163.9C691.3 164.8 690.8 166.4 692.1 168 693 168.8 695.3 169 696.2 168L707.8 157 723.3 161.8 699.5 183.7C698.5 185.2 698 186.8 699.3 188.3 700.2 189.2 702.5 189.3 703.4 188.4L729.7 163.8 742 167.6 749.9 201 739.4 210.1 706.3 199.9C704.7 199.4 703.3 200.1 702.8 201.7 702.3 203.3 702.9 205.3 704.5 205.8L734.4 215 722.8 226.1 708.4 221.6C706.7 221.1 705.3 221.9 704.9 223.5 704.4 225.1 705.1 226.5 706.7 227L717.9 230.4 704.1 243.2C703.2 244.1 703.1 246.4 704 247.2 705.4 248.3 707 248.8 708 247.3L722.6 234.2 725.6 247.5C726.3 248.9 727.8 249.9 729 249.7 730.2 249.5 731.1 248.6 731.4 247.5 731.4 247.5 731.6 247 731.2 246.3L727.7 229.3 739.3 218.3 747.3 251.2C747.3 253 748.8 254 750.7 253.4 751.4 253.1 752.1 252.7 752.4 251.6 752.6 251.1 752.8 250.6 752.9 250L744.1 213.9 753.9 205.2 786.5 215.3 789.7 229.7 764.2 253.5C762.6 254.8 762.6 256.5 764.1 257.6 764.8 259 766.6 258.9 768.1 257.7L791.2 236.1 795.1 251.9 783.7 262.4C782.8 263.4 782.8 265.1 783.6 266.5 785 267.6 786.6 268 787.7 266.6L796.5 258.8 800.6 275.9C800.7 277.7 802.3 278.1 804 278.1 804.7 277.7 805.6 276.8 805.9 275.8 805.9 275.8 806.1 275.2 806.3 274.7L802 256.4 815.3 260.5C816.4 260.8 818.3 260.3 818.8 258.6 819.3 257 818 255.5 817 255.1L800.4 250 796.5 234.2 829.1 244.2C830.7 244.7 832.3 243.5 832.8 241.9S832.6 238.9 831 238.4L795.1 227.3 792.1 214.1 817.5 190.8 831.4 195.1 839.3 230.4C840 231.8 841.5 232.8 843.2 232.8 843.9 232.4 844.8 231.5 845.1 230.4 845.3 229.9 845.5 229.4 845.1 228.7L837.8 197.1 853.3 201.9 857.2 217.8C857.4 219 858.9 220 860.7 220 862.1 219.2 863.1 217.8 862.9 216.6L859.8 203.9 876.9 209.2C878 209.5 880.1 208.4 880.4 207.3 880.9 205.7 879.8 203.6 878.7 203.3L861.6 198 871.1 189.8C871.3 189.3 871.5 188.7 871.6 188.2 872 187.1 871.8 185.9 871.4 185.2 869.9 184.2 868.2 184.2 866.8 184.9L855.2 196 839.6 191.2 863.4 169.3C865 168 864.9 166.2 864 165.3 862.8 163.8 861 163.8 859.6 164.6L833.2 189.2 819.3 184.9 811.5 151.5 821.4 142.2 857.2 153.3C858.8 153.8 860.2 153 860.7 151.4 861.2 149.8 860.5 148.4 858.9 147.9L826.2 137.9 838.4 127 855 132.1C856 132.4 858.1 131.3 858.6 129.7 859.1 128.1 857.8 126.5 856.8 126.2L843.4 122.1 857.3 109.3C857.4 108.8 857.4 108.8 857.6 108.3 857.9 107.2 857.7 106 857.4 105.3 855.9 104.2 854.2 104.3 853.3 105.2ZM812.9 183L813.5 186.7 811.1 188.9 790.6 207.7 788.2 209.9 784.9 208.9 758.7 200.8 755.5 199.8 754.7 196.7 748.5 169.5 747.7 166.4 750.3 163.6 770.6 145.3 773.2 142.6 776.4 143.6 802.6 151.7 805.8 152.7 806.4 156.4 812.9 183Z" fill="rgba(51, 121, 194, 0.58)"></path><path d="M199.6 332.6L210.8 322.5 213.3 332.3C213.5 333.4 214.7 334.3 216.2 334.2 217.4 333.6 218.3 332.4 218.1 331.3L215.1 318.3 225.6 309 231.4 335.4C231.9 337.1 233.2 338 234.4 337.4 235.9 337.3 236.8 336.1 236.3 334.4L229.8 305.3 239 296.6 267 305.3 269.6 316.1 245.9 337.4C245.8 337.9 245.6 338.3 245.5 338.8 245.3 339.3 245.5 340.3 245.8 340.9 246.9 342.3 248.4 342.2 249.3 341L270.9 321.6 273.8 335 263.1 345.3C262.6 345.1 262.5 345.6 262.3 346 262 347 262.2 348 263 348.8 263.8 349.5 265.3 349.5 266.5 348.8L275.1 340.5 278.9 357.3C279.1 358.3 280.3 359.2 281.9 359.2 283.1 358.5 283.9 357.3 283.8 356.2L280.1 340.5 289.7 343.5C291.1 343.9 292.5 342.9 292.7 341.9 293.2 340.6 292.7 338.9 291.3 338.5L278.9 334.6 276.1 321.2 301.8 329.2C303.1 329.6 304.3 329 304.8 327.6 305.2 326.2 304.6 325 303.2 324.6L274.8 315.7 271.8 304.3 293.6 284.4 304.1 287.7 310.9 317.4C311 319 312.7 320 313.9 319.4 315.4 319.3 315.8 317.9 315.8 316.4L309.6 289.4 322.9 293.5 325.7 307C325.9 308 327.6 309.1 328.7 308.9S330.8 307 330.7 305.5L328.4 295.2 344.4 300.2C345.8 300.6 347.2 299.6 347.6 298.2 347.9 297.3 347.4 295.6 346 295.2L330 290.2 337.9 282.6C338.6 281.8 339 280.4 337.9 279.1 337.2 278.3 335.2 278.2 334.4 279L324.5 288.5 311.2 284.3 331.6 265.6C332.5 264.3 332.9 262.9 331.8 261.6 331 260.9 329.1 260.7 328.3 261.5L305.7 282.6 295.1 279.3 288.5 250.6 297.4 242.9 325.8 251.7C327.2 252.1 328.4 251.5 328.9 250.1 329.3 248.7 328.8 247.1 327.4 246.7L301.7 238.7 311.7 229.2 324.1 233.1C325.5 233.5 326.7 232.9 327.1 231.5 327.5 230.1 326.9 228.9 325.5 228.5L315.9 225.5 327.8 214.6C328.6 213.8 328.7 211.9 327.9 211.1 326.7 210.2 325.3 209.8 324.4 211L311.9 222.2 309.4 210.9C308.8 209.7 307.5 208.8 306.5 209 305.4 209.1 304.7 209.9 304.4 210.8 304.4 210.8 304.2 211.3 304.6 211.9L307.6 226.4 297.6 235.9 290.8 207.6C290.8 206.1 289.5 205.2 287.9 205.7 287.3 206 286.7 206.3 286.4 207.3 286.2 207.7 286.1 208.2 286 208.6L293.4 239.6 285.1 247.1 257.1 238.4 254.4 226 276.3 205.6C277.7 204.5 277.7 203 276.4 202.1 275.8 200.9 274.3 201 272.9 202.1L253.1 220.5 249.8 206.9 259.6 197.9C260.4 197.2 260.3 195.6 259.7 194.4 258.5 193.5 257.1 193.1 256.2 194.4L248.6 201 245.1 186.4C245.1 184.9 243.7 184.4 242.2 184.5 241.6 184.8 240.9 185.6 240.6 186.5 240.6 186.5 240.4 186.9 240.3 187.4L243.9 203.1 232.5 199.5C231.6 199.3 229.9 199.7 229.5 201.1 229.1 202.5 230.1 203.8 231.1 204.1L245.3 208.5 248.6 222.1 220.6 213.4C219.2 213 217.9 214.1 217.5 215.5S217.7 218.1 219.1 218.5L249.8 228 252.3 239.4 230.5 259.2 218.6 255.5 211.9 225.3C211.3 224.1 210 223.2 208.5 223.2 207.9 223.6 207.2 224.3 206.9 225.3 206.8 225.7 206.6 226.2 206.9 226.8L213.1 253.8 199.8 249.7 196.5 236.1C196.3 235 195.1 234.1 193.6 234.2 192.4 234.8 191.5 236 191.6 237.1L194.3 248 179.6 243.4C178.7 243.1 176.9 244.1 176.6 245 176.2 246.4 177.1 248.2 178.1 248.5L192.7 253 184.5 260C184.4 260.5 184.2 260.9 184.1 261.4 183.8 262.3 184 263.4 184.3 264 185.5 264.9 187 264.8 188.2 264.2L198.2 254.7 211.5 258.9 191.1 277.6C189.8 278.7 189.8 280.3 190.6 281 191.6 282.3 193.2 282.3 194.4 281.7L217 260.6 228.9 264.3 235.6 293 227.1 300.9 196.4 291.4C195 290.9 193.8 291.6 193.4 292.9 193 294.3 193.6 295.5 195 295.9L222.9 304.6 212.5 314 198.3 309.5C197.4 309.3 195.6 310.2 195.1 311.6 194.7 312.9 195.8 314.3 196.7 314.6L208.2 318.1 196.2 329C196.1 329.5 196.1 329.5 195.9 329.9 195.7 330.8 195.8 331.9 196.2 332.5 197.4 333.4 198.9 333.4 199.6 332.6ZM234.4 266L233.9 262.8 236 261 253.6 244.8 255.7 242.9 258.4 243.8 280.9 250.8 283.6 251.6 284.3 254.4 289.6 277.6 290.3 280.4 288.1 282.7 270.6 298.4 268.4 300.7 265.6 299.8 243.2 292.8 240.4 292 239.9 288.8 234.4 266Z" fill="rgba(51, 121, 194, 0.58)"></path><path d="M394.1 147.1L405.4 141.7 405 150.1C404.9 151 405.7 152 406.9 152.4 408 152.1 409 151.4 409.1 150.5L409.8 139.4 420.4 134.4 418.8 156.9C418.8 158.4 419.5 159.4 420.6 159.2 421.9 159.5 422.9 158.7 422.9 157.3L424.6 132.4 434 127.7 454.3 141.3 453.8 150.6 429.8 162C429.6 162.3 429.4 162.6 429.2 163 429 163.3 428.8 164.2 428.9 164.7 429.5 166.1 430.7 166.4 431.7 165.6L453.6 155.3 452.7 166.7 441.7 172.3C441.3 172.1 441.1 172.4 440.9 172.8 440.5 173.4 440.3 174.3 440.8 175.1 441.2 175.9 442.4 176.2 443.6 176L452.4 171.3 451.5 185.7C451.4 186.5 452.2 187.5 453.4 187.9 454.5 187.7 455.5 186.9 455.6 186L456.4 172.6 463.4 177.3C464.4 177.9 465.7 177.4 466.2 176.7 466.9 175.7 466.9 174.3 465.9 173.6L456.9 167.6 457.8 156.2 476.4 168.6C477.4 169.3 478.5 169.1 479.2 168.1 479.9 167.1 479.6 166 478.6 165.3L458.1 151.5 458.4 141.6 480.5 130.9 488.2 136.1 486.5 161.5C486.2 162.7 487.3 163.9 488.4 163.7 489.6 164 490.3 163 490.6 161.8L492.1 138.7 501.8 145.2 500.9 156.6C500.7 157.5 501.9 158.7 502.7 158.8S504.8 157.9 505.2 156.6L505.8 147.9 517.4 155.7C518.4 156.3 519.7 155.8 520.4 154.8 520.8 154.1 520.8 152.7 519.8 152L508.2 144.2 516.3 140C517.1 139.6 517.8 138.6 517.2 137.3 516.8 136.5 515.2 135.9 514.5 136.4L504.2 141.5 494.6 135.1 515.4 124.9C516.4 124.2 517 123.2 516.5 121.8 516.1 121.1 514.5 120.5 513.7 120.9L490.6 132.4 483 127.3 484.5 102.8 493.5 98.7 514.1 112.5C515.1 113.2 516.2 113 516.9 112 517.5 111 517.5 109.5 516.5 108.9L497.9 96.4 508.2 91.2 517.1 97.2C518.1 97.9 519.2 97.7 519.9 96.7 520.6 95.7 520.3 94.6 519.4 93.9L512.4 89.2 524.5 83.4C525.3 82.9 525.8 81.4 525.4 80.6 524.6 79.6 523.6 78.9 522.6 79.7L509.9 85.6 510.6 76C510.4 74.9 509.6 73.9 508.8 73.8 507.9 73.7 507.1 74.1 506.6 74.8 506.6 74.8 506.4 75.1 506.5 75.7L505.5 88 495.3 93.1 496.6 69C496.9 67.7 496.1 66.7 494.7 66.7 494.1 66.9 493.6 67 493.1 67.6 492.9 68 492.7 68.3 492.5 68.6L491.1 95.1 482.6 99.1 462.4 85.5 463.2 75 485.5 63.9C486.8 63.4 487.2 62.2 486.4 61.2 486.2 60.1 484.9 59.7 483.6 60.3L463.4 70.3 464 58.7 474 53.8C474.8 53.4 475.1 52.2 474.9 51 474.1 50 473.1 49.4 472.1 50.1L464.4 53.7 465.1 41.1C465.5 39.9 464.5 39.3 463.3 38.9 462.7 39 461.9 39.5 461.5 40.1 461.5 40.1 461.3 40.5 461 40.8L460.2 54.2 451.9 48.6C451.3 48.2 449.8 48.2 449.1 49.2 448.5 50.2 449 51.5 449.7 52L460 58.9 459.4 70.5 439.1 56.9C438.1 56.3 436.8 56.8 436.1 57.8S435.7 59.9 436.7 60.6L458.9 75.5 458.2 85.2 436.1 95.9 427.5 90.1 429.4 64.3C429.1 63.2 428.4 62.2 427.1 61.9 426.6 62 425.8 62.4 425.4 63.1 425.1 63.4 424.9 63.8 425 64.3L423.5 87.4 413.9 80.9 414.5 69.3C414.6 68.4 413.8 67.4 412.6 67.1 411.5 67.3 410.5 68 410.4 68.9L409.9 78.3 399.3 71.1C398.6 70.7 396.9 71 396.5 71.7 395.8 72.7 396.2 74.3 396.8 74.8L407.4 81.9 399.2 85.5C399 85.9 398.8 86.2 398.6 86.5 398.1 87.2 398 88.1 398.1 88.6 398.9 89.6 400.1 90 401.2 89.8L411.4 84.6 421.1 91 400.3 101.2C399 101.7 398.6 103 399.1 103.7 399.6 105.1 400.8 105.4 401.9 105.2L425.1 93.7 433.7 99.5 432.2 124 423.5 128.3 401.3 113.4C400.3 112.7 399.1 112.9 398.5 113.9 397.8 114.9 398 116 399 116.7L419.3 130.3 408.7 135.3 398.4 128.4C397.8 127.9 396.1 128.2 395.4 129.2 394.8 130.2 395.3 131.6 396 132L404.3 137.6 392.2 143.4C392 143.8 392 143.8 391.7 144.1 391.3 144.8 391.2 145.6 391.3 146.2 392.1 147.2 393.3 147.5 394.1 147.1ZM437.7 102.2L438 99.5 440.1 98.5 458 89.8 460.1 88.8 462.1 90.2 478.4 101.1 480.4 102.4 480.3 104.8 479 124.6 478.9 126.9 476.5 128.3 458.9 136.6 456.5 138 454.5 136.6 438.3 125.7 436.3 124.4 436.6 121.7 437.7 102.2Z" fill="rgba(51, 121, 194, 0.58)"></path><path d="M977.4 73L986.4 79.6 980.4 82.6C979.7 82.9 979.3 83.8 979.6 84.8 980.1 85.5 981.1 85.9 981.8 85.3L989.5 81.8 996.7 86.6 980.7 93.9C980 94.5 979.6 95.4 979.8 96.1 980.4 97.1 981.3 97.5 982 96.9L999.8 88.8 1010.6 96.6 996.1 101.4 1009.6 108.7 997.5 114.3 981.4 103.3C981.5 102.9 981.2 102.9 980.8 102.9 980.2 102.8 979.5 103.1 979.2 103.7 978.8 104.3 979 105.3 979.6 106L994.1 116 986.1 119.4 979.1 114.6C978.9 114.3 978.5 114.3 978.2 114.2 977.9 114.2 977.2 114.5 976.9 115.1 976.5 115.7 976.7 116.7 977.3 117L982.7 121.1 972.7 125.9C971.7 126.2 971.6 127.1 971.8 128.1 972.1 128.8 973 129.2 974 128.6L984.1 124.1 983.5 130.8C983.4 131.7 984.3 132.4 984.9 132.5 985.9 132.6 986.6 132 986.7 131L987.4 122.4 995.5 119 993.9 136.2C993.8 137.1 994.4 137.8 995.4 137.9 996 138 997 137.4 997.1 136.5L998.8 117.3 1010.9 111.7 1008 126.5 1020.9 118.7 1019.7 132.1 1002.2 140.1C1001.2 140.7 1001.1 141.7 1001.4 142.3 1001.7 143 1002.6 143.4 1003.6 143.2L1019.4 135.6 1018.6 144.2 1010.9 148C1009.9 148.2 1009.5 149.1 1010 150.2 1010.3 150.8 1011.2 151.2 1012.2 150.7L1018.3 148 1017.3 159.2C1017.2 160.1 1017.8 160.8 1018.7 160.9S1020.4 160.4 1020.4 159.4L1021.4 148.3 1026.9 152C1027.8 152.7 1028.8 152.5 1029.2 151.9 1029.9 151 1029.6 150 1028.7 149.6L1021.8 144.5 1022.5 135.9 1036.7 146.1C1037.7 146.5 1038.6 146.3 1039 145.7 1039.7 144.8 1039.5 143.8 1038.6 143.4L1022.9 132.3 1024.1 119 1035.4 129 1035.1 113.8 1046 121.6 1044.3 140.7C1044.2 141.6 1045.1 142.4 1045.7 142.4 1046.7 142.5 1047.4 141.9 1047.5 141L1049 123.4 1056.3 128.6 1055.5 137.2C1055.4 138.1 1056 138.8 1057 138.9 1057.6 139 1058.6 138.4 1058.7 137.5L1059.3 130.8 1068.4 137.1C1069.3 137.8 1070.3 137.5 1070.7 136.6 1071 136 1071.1 135 1070.2 134.6L1061.2 128.1 1067.2 125.1C1067.9 124.8 1068.3 123.9 1068 123.2 1067.8 122.5 1067.1 122.2 1066.8 122.1 1066.5 122.1 1066.2 122.1 1065.8 122.4L1058.1 125.9 1050.9 121 1066.9 113.8C1067.6 113.2 1068 112.3 1067.8 111.6 1067.5 110.9 1066.9 110.6 1066.3 110.5 1065.9 110.5 1065.9 110.5 1065.6 110.8L1047.8 118.8 1037 111.1 1051.5 106.3 1038 99 1050.1 93.3 1066.2 104.4C1066.8 104.8 1067.7 104.9 1068.4 104 1068.8 103.4 1068.6 102.4 1068 101.7L1053.5 91.7 1061.5 88.2 1068.5 93C1069 93.7 1070 93.5 1070.7 92.6 1071.1 92 1070.9 91 1070.3 90.3L1064.9 86.6 1074.9 81.7C1075.9 81.5 1076 80.5 1075.8 79.6 1075.5 79.2 1074.9 78.8 1074.5 78.8 1074.2 78.8 1073.9 78.8 1073.6 79L1063.5 83.6 1064.1 76.9C1064.2 76 1063.3 75.2 1062.7 75.2L1062.7 75.2C1061.7 75.1 1061 75.7 1060.9 76.6L1060.2 85.2 1052.1 88.7 1053.7 71.5C1053.8 70.5 1053.2 69.8 1052.2 69.7S1050.6 70.2 1050.5 71.2L1048.8 90.3 1036.7 96 1039.6 81.2 1026.7 89 1027.9 75.6 1045.4 67.5C1046.4 67 1046.4 66 1046.2 65.4 1045.9 64.7 1045 64.3 1044 64.5L1028.3 71.8 1029 63.5 1036.7 59.7C1037.7 59.5 1038.1 58.5 1037.6 57.5 1037.3 56.9 1036.4 56.4 1035.4 56.7L1029.3 59.7 1030.3 48.5C1030.4 47.6 1029.8 46.9 1028.9 46.8S1027.2 47.3 1027.2 48.2L1026.2 59.4 1020.7 55.7C1020.4 55.3 1020.1 55.3 1019.8 55.3 1019.1 55.2 1018.8 55.5 1018.4 55.8 1017.7 56.7 1018 57.7 1018.9 58.1L1025.8 63.2 1025 71.8 1010.9 61.6C1010.5 61.5 1010.2 61.5 1009.9 61.5 1009.3 61.4 1008.9 61.7 1008.6 62 1007.9 62.9 1008.1 63.9 1009 64.3L1024.7 75.3 1023.5 88.7 1012.2 78.7 1012.5 93.8 1001.6 86.1 1003.3 67C1003.4 66 1002.5 65.3 1001.9 65.3 1000.9 65.2 1000.2 65.7 1000.1 66.7L998.6 83.9 991.3 79.1 992.1 70.5C992.2 69.5 991.6 68.8 990.6 68.7S989 69.2 988.9 70.2L988.3 76.9 979.2 70.6C978.9 70.3 978.6 70.2 978.3 70.2 978 70.2 977.3 70.4 976.9 71.1 976.6 71.7 976.5 72.6 977.4 73ZM1015.5 85.7L1024.7 94 1035.2 87.5 1032.8 99.8 1043.6 105.6 1031.9 109.7 1032.1 121.9 1022.9 113.7 1012.4 120.2 1014.7 108.2 1004 102.1 1015.6 98.3 1015.5 85.7Z" fill="rgba(51, 121, 194, 0.58)"></path></g><defs><mask id="SvgjsMask1000"><rect width="1440" height="560" fill="#ffffff"></rect></mask><filter id="SvgjsFilter1001"><feGaussianBlur stdDeviation="1"></feGaussianBlur></filter></defs></svg>